<?xml version="1.0" encoding="utf-8"?>
<!-- Generator: Adobe Illustrator 23.0.3, SVG Export Plug-In . SVG Version: 6.00 Build 0)  -->
<svg version="1.1" id="Capa_1" xmlns="http://www.w3.org/2000/svg" xmlns:xlink="http://www.w3.org/1999/xlink" x="0px" y="0px"
	 viewBox="0 0 373.5 373.5" style="enable-background:new 0 0 373.5 373.5;" xml:space="preserve">
<style type="text/css">
	.st0{fill:#143F70;}
</style>
<g>
	<path class="st0" d="M355.5,84.9c-2.4-22.8-13.5-43.2-31.2-57.6L314,19C298.9,6.8,279.8,0,260.2,0c-26,0-50.3,11.6-66.6,31.7
		l-157,194.1c-14.4,17.8-21,40.1-18.6,62.8c2.4,22.7,13.5,43.2,31.3,57.6l10.2,8.3c15.2,12.3,34.3,19,53.8,19c3,0,6.1-0.2,9.1-0.5
		c22.6-2.4,43-13.4,57.3-30.9c0-0.1,0.1-0.1,105.9-130.9c18.9-23.3,15.2-57.6-8.1-76.5l-5.4-4.3c-9.6-7.8-21.8-12.1-34.1-12.1
		c-16.5,0-31.9,7.3-42.3,20.1L89.9,269.2c-6.9,8.5-5.6,21.1,3,28c3.5,2.9,8,4.4,12.5,4.4c6,0,11.7-2.7,15.5-7.4l105.7-130.7
		c2.8-3.4,6.9-5.4,11.3-5.4c3.4,0,6.5,1.1,9.1,3.2l5.4,4.3c3,2.4,4.9,5.9,5.3,9.8c0.4,3.9-0.7,7.6-3.1,10.7L148.9,316.7
		c-8.7,10.8-21.7,16.9-35.6,16.9c-10.4,0-20.6-3.6-28.7-10.2l-10.2-8.3c-9.5-7.7-15.4-18.6-16.7-30.8c-1.3-12.2,2.2-24.1,9.9-33.6
		l157-194.1c8.7-10.8,21.7-17,35.6-17c10.4,0,20.6,3.6,28.7,10.2l10.2,8.3c19.6,15.9,22.7,44.8,6.8,64.4c-3.3,4.1-4.9,9.3-4.3,14.6
		c0.6,5.3,3.1,10.1,7.3,13.4c3.5,2.9,8,4.4,12.5,4.4l0,0c6,0,11.7-2.7,15.5-7.4C351.3,130,357.9,107.6,355.5,84.9z"/>
</g>
</svg>
