<svg id="Capa_1" data-name="Capa 1" xmlns="http://www.w3.org/2000/svg" viewBox="0 0 301.31 470"><defs><style>.cls-1{fill:#143f70;}</style></defs><title>compass</title><path class="cls-1" d="M383.65,396.84l-2.74-8a30,30,0,0,0-12.75-37.41L323.36,220h32v2.5a7.5,7.5,0,0,0,15,0v-20a7.5,7.5,0,0,0-15,0V205H318.25L280,92.79a7.54,7.54,0,0,0-.67-1.44,45,45,0,0,0-37-50.71V7.5a7.5,7.5,0,1,0-15,0V40.64A45,45,0,0,0,190.48,93l-38.2,112H114.15v-2.5a7.5,7.5,0,1,0-15,0v20a7.5,7.5,0,1,0,15,0V220h33l-23.71,69.56a7.5,7.5,0,1,0,14.2,4.84L199.51,113a44.94,44.94,0,0,0,11.38,10.17L107.4,426.7a21.94,21.94,0,0,1-6.14-7.92,21,21,0,0,1-.32-16.7c.05-.13.1-.26.15-.39L128,322.81a7.5,7.5,0,1,0-14.2-4.84L102.49,351a30,30,0,0,0-13.11,38.44l-2.45,7.17A35.88,35.88,0,0,0,87.59,425a37.16,37.16,0,0,0,14.77,16.51L96,460.08a7.5,7.5,0,1,0,14.2,4.84l21-61.48A30,30,0,0,0,144,365.78L193.71,220h33.55v12.5a7.5,7.5,0,0,0,15,0V220h33.55l49.7,145.76a30,30,0,0,0,12.84,37.66l21,61.48a7.5,7.5,0,1,0,14.2-4.84l-6.34-18.59a37.88,37.88,0,0,0,16.48-44.64Zm-45.47-19.46a15,15,0,1,1,15,15A15,15,0,0,1,338.18,377.38ZM351,347.47a29.8,29.8,0,0,0-14.21,4.82L258.64,123.15a44.92,44.92,0,0,0,12.07-11.07Zm-108.7-225a7.5,7.5,0,1,1-.15-1.51A7.51,7.51,0,0,1,242.26,122.5ZM234.76,55a30,30,0,0,1,18,54,22.47,22.47,0,0,0-36,0,30,30,0,0,1,18-54Zm7.5,150v-12.5a7.5,7.5,0,1,0-15,0V205H198.82l22.09-64.8a22.43,22.43,0,0,0,27.69,0L270.7,205H242.26ZM362.15,426.76l-6.64-19.48a29.8,29.8,0,0,0,14.17-4.86A22.83,22.83,0,0,1,362.15,426.76Z" transform="translate(-84.34 0)"/></svg>