<svg id="Capa_1" data-name="Capa 1" xmlns="http://www.w3.org/2000/svg" viewBox="0 0 300.72 387.36"><defs><style>.cls-1{fill:#143f70;}</style></defs><title>cut</title><path class="cls-1" d="M333.38,288.65c-10.34-18-26.8-31.19-45.19-36.21a56.52,56.52,0,0,0-36.25,1.72l-32.41-56.7C248.33,144.58,291,66.34,296.38,56.93c13.17-23-8.45-48.58-9.37-49.65L280.73,0l-87,152.25L106.64,0,100.36,7.3C99.43,8.37,77.81,33.92,91,56.95c5.38,9.4,48.05,87.64,76.86,140.53l-32.42,56.7a56.56,56.56,0,0,0-36.26-1.72c-18.38,5-34.85,18.21-45.18,36.21C34.57,322.6,42.4,363.73,71.43,380.33a52.82,52.82,0,0,0,26.7,7,49.32,49.32,0,0,0,16-2.19c31.11-10.59,47-36,54.68-62.13.33-1.12,15.68-63.33,24.25-76.88l.66-1.21c.39.73.66,1.21.66,1.21,8.57,13.55,23.92,75.76,24.25,76.88,7.62,26.11,23.57,51.55,54.68,62.13a49.29,49.29,0,0,0,16,2.19,52.86,52.86,0,0,0,26.7-7C345,363.71,352.78,322.59,333.38,288.65ZM134.16,334.57c-6.45,11.25-16.79,19.74-27.63,22.69a32.19,32.19,0,0,1-8.35,1.16,24.48,24.48,0,0,1-12.33-3.2c-15.18-8.67-18.21-32.1-6.72-52.19,6.54-11.4,16.62-19.65,27.62-22.65,7.51-2,14.78-1.38,20.73,2C142.63,291.09,145.63,314.51,134.16,334.57Zm167.36,20.64a24.43,24.43,0,0,1-12.33,3.21,32.16,32.16,0,0,1-8.35-1.17c-10.85-2.94-21.19-11.43-27.63-22.68-11.48-20.07-8.47-43.48,6.69-52.16,6-3.4,13.22-4.06,20.73-2,11,3,21.08,11.24,27.62,22.64C319.73,323.13,316.71,346.55,301.52,355.22Z" transform="translate(-43.32 0)"/></svg>