<svg id="Capa_1" data-name="Capa 1" xmlns="http://www.w3.org/2000/svg" viewBox="0 0 361.11 512"><defs><style>.cls-1{fill:#143f70;}</style></defs><title>education</title><path class="cls-1" d="M146.8,286a10,10,0,1,0,10,10A10,10,0,0,0,146.8,286Z" transform="translate(-75.45 0)"/><path class="cls-1" d="M146.8,326a10,10,0,0,0-10,10V462a10,10,0,0,0,20,0V336A10,10,0,0,0,146.8,326Z" transform="translate(-75.45 0)"/><path class="cls-1" d="M424.19,7.52A10,10,0,0,0,408.6,1.93c-10,7.32-60.26,44.94-68.44,67.42a49.89,49.89,0,0,0,2.77,40.39c-12.26,17.59-25,41.87-36.14,65.59V10a10,10,0,0,0-10-10h-80a10,10,0,0,0-10,10V206H205l-17.08-66.45,0-.1L172.37,81.5h0a10.1,10.1,0,0,0-.32-1c0-.1-.08-.19-.12-.29s-.19-.45-.3-.67l-.17-.31c-.11-.21-.23-.41-.36-.6l-.2-.29c-.14-.19-.28-.38-.43-.57l-.12-.16L111,7.7a10,10,0,0,0-17.43,4.53L75.63,102.85c0,.07,0,.14,0,.2,0,.26-.08.52-.11.78,0,.11,0,.22,0,.33s0,.5,0,.75,0,.23,0,.35,0,.51.07.76,0,.21,0,.31a10.07,10.07,0,0,0,.22,1l15.51,57.89,10.41,41.17a30,30,0,0,0-4.9,57.84V462a50.06,50.06,0,0,0,50,50h200a50.06,50.06,0,0,0,50-50V264.3a30,30,0,0,0-4.36-57.76C399,180,403.56,153.7,405.26,133a49.72,49.72,0,0,0,28.88-29.48C442.34,81,427.29,19.6,424.19,7.52Zm-68,118.24a50.09,50.09,0,0,0,28.63,10.65c-2,19.94-6.6,44.76-12.91,69.59H314.8C330.07,171.4,344.17,144.09,356.24,125.75ZM226.8,20h60V43h-20a10,10,0,0,0,0,20h20V83h-20a10,10,0,0,0,0,20h20v20h-20a10,10,0,1,0,0,20h20v20h-20a10,10,0,0,0,0,20h20v23h-60ZM109.15,36.44l41,48.34A46.61,46.61,0,0,1,96.74,99.17Zm-9,84.55a65.71,65.71,0,0,0,13.48,1.4,67,67,0,0,0,17.34-2.3,66.26,66.26,0,0,0,27.13-14.65l10.49,39.13L184.35,206H122.21l-11.55-45.7,0-.14ZM376.8,462a30,30,0,0,1-30,30h-200a30,30,0,0,1-30-30V266h260Zm20-226a10,10,0,0,1-10,10h-280a10,10,0,0,1,0-20h280A10,10,0,0,1,396.8,236ZM415.34,96.71A30,30,0,0,1,363,104.26h0A30,30,0,0,1,359,76.19C362.7,65.9,387.09,44,408.32,27.26,414.16,53.8,419.08,86.44,415.34,96.71Z" transform="translate(-75.45 0)"/></svg>