<svg id="Capa_1" data-name="Capa 1" xmlns="http://www.w3.org/2000/svg" viewBox="0 0 52.96 53.01"><defs><style>.cls-1{fill:#143f70;}</style></defs><title>push-pin</title><path class="cls-1" d="M53,21.3a1,1,0,0,0-.61-.73,23.32,23.32,0,0,0-8.67-1.65A25.09,25.09,0,0,0,34,20.86L19.11,8.2A11.18,11.18,0,0,0,17.06.37,1,1,0,0,0,16.33,0a1,1,0,0,0-.76.29L.32,15.55A1,1,0,0,0,.4,17,10.77,10.77,0,0,0,7.1,19.13c.41,0,.76,0,1,0L20.85,34c-.87,2.23-3.52,10.27-.31,18.34a1,1,0,0,0,.73.61l.2,0a1,1,0,0,0,.71-.29L36.75,38.15,50.32,51.72a1,1,0,0,0,1.41-1.41L38.16,36.73,52.69,22.21A1,1,0,0,0,53,21.3Z" transform="translate(-0.03 0)"/></svg>