<svg xmlns="http://www.w3.org/2000/svg" viewBox="0 0 686.86 327.08">
    <defs>
        <style>
            .cls-1 {
                fill: #8ac6c3;
            }

            .cls-2 {
                fill: #143f70;
            }

            .cls-3 {
                fill: #0a738e;
            }
    
            #complet{
            display: block;
            }
            #tablet{
            display: none;
            }
            #mobil{
            display: none;
            }
            #icono{
            display: none;
            }
            
             @media screen and (max-width: 1300px){
                #complet{
                    display: none;
                }
                #tablet{
                    display: block;
                }
               
            }
            @media screen and (max-width: 768px){
                #complet{
                    display: none;
                }
                #tablet{
                    display: none;
                }
                #mobil{
                    display: block;
                }
               
            }
            @media screen and (max-width: 576px){
                #complet{
                    display: none;
                }
                #tablet{
                    display: none;
                }
                #mobil{
                    display: none;
                }
                #icono{
                    display: block;
                }
            }
            
            
        </style>
    </defs>
    <title>schoolSupplies</title>

    <g id="complet">
        
        <path class="cls-1" d="M173.42,204.92v-5.85q0-5.43-3.13-8.36t-10.24-2.93q-13.8,0-13.79,9.83v3.13a8.92,8.92,0,0,0,1.35,5.12c.91,1.33,2.89,3,6,4.91a88,88,0,0,0,14,7.11,64.36,64.36,0,0,1,13,6.89,28.47,28.47,0,0,1,8.05,7.94q2.82,4.39,2.82,12.12v4.6q0,13.17-7.42,19.65t-23.51,6.47q-17.15,0-24.77-7t-7.62-20.37v-6.06h17.13v6.69q0,6.06,3.24,9t11.18,2.93q7.32,0,10.66-2.72t3.34-8.36v-4a11.55,11.55,0,0,0-1.56-5.85q-1.57-2.72-7.22-5.85L161,232q-3.45-1.77-7.73-4.18t-8.57-4.91q-4.29-2.5-6.58-4.18a21.38,21.38,0,0,1-7-8.15,22.93,22.93,0,0,1-2-9.61v-5A20.61,20.61,0,0,1,137,179.11q7.83-6.37,22.46-6.37,15.68,0,23.3,7.31t7.63,19.85v5Z" transform="translate(-77.51 -133.87)" />
        <path class="cls-1" d="M247.4,237.1h17.14v7.11q0,15.67-7.21,23.51t-23.51,7.83q-15.88,0-23.51-7.62t-7.63-23.72V204.08q0-15.87,7.63-23.61T234,172.74q16.1,0,23.3,7.73t7.21,23.61v6.69H247.61v-6.69q0-15-13.58-15-13.8,0-13.79,15v40.13q0,15,13.58,15t13.58-15Z" transform="translate(-77.51 -133.87)" />
        <path class="cls-1" d="M319.63,274.3V202.83q0-7.31-3.34-10.76t-9.41-3.45c-4.59,0-8.22,1.57-10.86,4.7s-4.12,8.47-4.39,16v65h-18V133.87h18v52.66h.83a21.32,21.32,0,0,1,8.36-10.45A24.64,24.64,0,0,1,314,172.74a24.3,24.3,0,0,1,11.18,2.3,20.44,20.44,0,0,1,7.31,6.16,25.55,25.55,0,0,1,4.08,8.78,41,41,0,0,1,1.25,10.13V274.3Z" transform="translate(-77.51 -133.87)" />
        <path class="cls-1" d="M413.63,244.21q0,16.29-7.63,23.82t-23.72,7.52q-16.09,0-23.72-7.52t-7.63-23.82V204.08q0-16.29,7.63-23.82t23.72-7.52q16.1,0,23.72,7.52t7.63,23.82Zm-17.56-40.13q0-15-13.79-15t-13.79,15v40.13q0,15,13.79,15t13.79-15Z" transform="translate(-77.51 -133.87)" />
        <path class="cls-1" d="M486.44,244.21q0,16.29-7.63,23.82t-23.72,7.52q-16.09,0-23.72-7.52t-7.63-23.82V204.08q0-16.29,7.63-23.82t23.72-7.52q16.1,0,23.72,7.52t7.63,23.82Zm-17.56-40.13q0-15-13.79-15t-13.79,15v40.13q0,15,13.79,15t13.79-15Z" transform="translate(-77.51 -133.87)" />
        <path class="cls-1" d="M494.55,274.3V133.87h18V274.3Z" transform="translate(-77.51 -133.87)" />
        <path class="cls-2" d="M252.59,417.09a11.82,11.82,0,0,0,7.46-2.79,13.84,13.84,0,0,0,4.77-6.74q7.46-28.38,15.33-57.39t15.34-57.4h23L287.61,408a39.82,39.82,0,0,1-6,12.43,51.15,51.15,0,0,1-9.53,10.15,43.52,43.52,0,0,1-11.91,6.84,36.14,36.14,0,0,1-13,2.49H236.85q-11.19,0-18.13-6.74t-6.95-17.3a30.18,30.18,0,0,1,1.25-8.29q7.46-28.38,15.33-57.39t15.33-57.4h23L235.81,408q-1,3.93.73,6.53t5.69,2.58Z" transform="translate(-77.51 -133.87)" />
        <path class="cls-2" d="M310,439.89H287l39.37-147.12h42.26q11.4,0,18.13,6.74t6.74,17.3a41,41,0,0,1-.21,4.14,21.79,21.79,0,0,1-.83,4.15c-1,3.45-1.9,6.9-2.79,10.36s-1.84,6.91-2.8,10.36a40.18,40.18,0,0,1-6,12.22,49.93,49.93,0,0,1-9.63,10.15,48.6,48.6,0,0,1-11.82,6.95,33.27,33.27,0,0,1-12.74,2.59h-20.1Zm22.58-84.95h19.48A13.51,13.51,0,0,0,359.4,352a12,12,0,0,0,4.67-6.63l5.59-20.72c.69-2.62.42-4.8-.83-6.53s-3.18-2.58-5.8-2.58H343.14Z" transform="translate(-77.51 -133.87)" />
        <path class="cls-2" d="M392.87,439.89h-23l39.37-147.12h42.27q11.39,0,18.13,6.74t6.73,17.3a41,41,0,0,1-.21,4.14,21.76,21.76,0,0,1-.82,4.15q-1.45,5.17-2.8,10.36t-2.8,10.36a40.18,40.18,0,0,1-6,12.22,49.66,49.66,0,0,1-9.63,10.15,48.73,48.73,0,0,1-11.81,6.95,33.36,33.36,0,0,1-12.75,2.59h-20.1Zm22.58-84.95h19.48a13.56,13.56,0,0,0,7.36-2.91A11.93,11.93,0,0,0,447,345.4l5.59-20.72c.69-2.62.42-4.8-.83-6.53s-3.17-2.58-5.8-2.58H426Z" transform="translate(-77.51 -133.87)" />
        <path class="cls-2" d="M452.75,439.89l39.37-147.12h23L481.76,417.09h51.59l-5.8,22.8Z" transform="translate(-77.51 -133.87)" />
        <path class="cls-3" d="M564.84,439.89h-23l39.37-147.12h23Z" transform="translate(-77.51 -133.87)" />
        <path class="cls-2" d="M614.36,292.77h74.8L683,315.57h-51.8q-2.7,10.14-5.29,19.68t-5.28,19.69h41.65L656,377.73H614.57q-2.91,10.15-5.28,19.68T604,417.09h51.6l-5.8,22.8H575Z" transform="translate(-77.51 -133.87)" />
        <path class="cls-2" d="M689.78,414.61c1.11,1.66,2.9,2.48,5.39,2.48h11a13.24,13.24,0,0,0,7.56-2.79,11.74,11.74,0,0,0,4.46-6.53c.41-1.79.9-3.55,1.45-5.28s1-3.49,1.45-5.29a3.55,3.55,0,0,0,.21-1.14,5.72,5.72,0,0,1,.21-1.34c.27-1.38.58-2.87.93-4.46a22.18,22.18,0,0,0,.52-4.66,10.28,10.28,0,0,0-1.14-5q-1.14-2.07-4.67-2.49H706.78a21.5,21.5,0,0,1-7.78-1.66,28.56,28.56,0,0,1-8-4.76,27.4,27.4,0,0,1-6.32-7.67,21,21,0,0,1-2.59-10.57,31.21,31.21,0,0,1,.21-3.73,21.9,21.9,0,0,1,.82-3.93q1.46-5.38,2.8-10.67c.9-3.53,1.83-7.08,2.8-10.68a41.22,41.22,0,0,1,5.9-12.43A47.25,47.25,0,0,1,704.08,302a45.6,45.6,0,0,1,11.81-6.73A35.83,35.83,0,0,1,729,292.77h10.56q11.19.42,18,7.15t6.84,17.1a24.65,24.65,0,0,1-.31,3.93c-.21,1.25-.45,2.56-.73,3.94l-5.8,21.76h-23l6-22a6.46,6.46,0,0,0-1-6.21,8.18,8.18,0,0,0-5.59-2.9H723.35a11.56,11.56,0,0,0-7.46,2.69,12.49,12.49,0,0,0-4.35,6.84l-2.9,10.36a14.55,14.55,0,0,0-.62,3.11c-.28,1.52-.55,3.07-.83,4.66a26.79,26.79,0,0,0-.41,4.66,10.17,10.17,0,0,0,1.13,5q1.14,2.08,4.67,2.08h10.36a28.32,28.32,0,0,1,7.87,1.76,27.59,27.59,0,0,1,8.08,4.55,26.29,26.29,0,0,1,6.32,7.57,20.56,20.56,0,0,1,2.59,10.36,26.62,26.62,0,0,1-1.24,8.08q-1.24,5-2.7,10.36T741.17,408a39.63,39.63,0,0,1-5.91,12.33,47.27,47.27,0,0,1-9.63,10.05,50.09,50.09,0,0,1-12,6.94,34.24,34.24,0,0,1-12.85,2.59h-11q-11.17,0-17.82-6.63t-6.63-17a31.51,31.51,0,0,1,1.25-8.71q1.24-5,2.79-10.77t2.8-10.78h23l-6,22.18Q688.13,412.12,689.78,414.61Z" transform="translate(-77.51 -133.87)" />
        <polygon class="cls-3" points="480.36 327.08 44.88 327.08 50.13 310.07 485.6 310.07 480.36 327.08" />
        <path class="cls-2" d="M152.77,413.58q1.66,2.51,5.43,2.5h11.06a13.46,13.46,0,0,0,7.62-2.82,11.82,11.82,0,0,0,4.49-6.58c.42-1.8.91-3.58,1.47-5.32s1-3.51,1.46-5.33a3.84,3.84,0,0,0,.21-1.14,5.37,5.37,0,0,1,.21-1.36c.27-1.39.58-2.89.93-4.49a22,22,0,0,0,.53-4.7,10.3,10.3,0,0,0-1.15-5c-.77-1.39-2.33-2.22-4.7-2.51H169.89a21.56,21.56,0,0,1-7.83-1.67,28.81,28.81,0,0,1-8-4.8,27.78,27.78,0,0,1-6.37-7.72A21.21,21.21,0,0,1,145,352a33.67,33.67,0,0,1,.21-3.75,23.28,23.28,0,0,1,.83-4q1.47-5.43,2.83-10.75t2.81-10.76a41.78,41.78,0,0,1,5.95-12.53,47.2,47.2,0,0,1,9.5-10.12,45.93,45.93,0,0,1,11.91-6.79,36.11,36.11,0,0,1,13.15-2.51h10.65q11.28.42,18.17,7.21t6.89,17.23a23.88,23.88,0,0,1-.32,4c-.2,1.26-.45,2.58-.72,4l-5.85,21.93H197.87L203.93,323a6.53,6.53,0,0,0-1.05-6.26,8.3,8.3,0,0,0-5.64-2.93H186.59a11.59,11.59,0,0,0-7.51,2.72,12.59,12.59,0,0,0-4.39,6.89l-2.92,10.44a15.35,15.35,0,0,0-.63,3.13c-.28,1.53-.55,3.1-.83,4.7a27.27,27.27,0,0,0-.42,4.7,10.19,10.19,0,0,0,1.15,5q1.14,2.08,4.7,2.09h10.44a29.1,29.1,0,0,1,7.93,1.77,28.1,28.1,0,0,1,8.15,4.6,26.49,26.49,0,0,1,6.36,7.62,20.75,20.75,0,0,1,2.61,10.44A26.71,26.71,0,0,1,210,386q-1.24,5-2.71,10.44c-1,3.63-1.88,7.1-2.72,10.44a40.14,40.14,0,0,1-6,12.43,47.51,47.51,0,0,1-9.71,10.12,50.2,50.2,0,0,1-12.11,7,34.41,34.41,0,0,1-12.95,2.61H152.77q-11.28,0-18-6.68t-6.68-17.12a32.06,32.06,0,0,1,1.25-8.78c.84-3.34,1.77-7,2.82-10.85s2-7.52,2.82-10.86H158.2l-6.06,22.34C151.44,409.75,151.65,411.9,152.77,413.58Z" transform="translate(-77.51 -133.87)" />
        <rect class="cls-2" y="172.7" width="98.88" height="11.54" />
        <rect class="cls-2" x="24.01" y="191.81" width="53.21" height="12.99" />
        <rect class="cls-2" x="17.13" y="250.91" width="55.78" height="12.97" />
        <rect class="cls-2" x="26.91" y="281.48" width="44.6" height="9.48" />
        <rect class="cls-2" x="30.66" y="218.38" width="44.6" height="12.68" />
    </g>

    <g id="tablet">
        <path class="cls-1" d="M243.56,231.13v-4.2a7.8,7.8,0,0,0-2.25-6c-1.49-1.39-3.94-2.09-7.33-2.09q-9.89,0-9.89,7v2.24a6.36,6.36,0,0,0,1,3.67,15.38,15.38,0,0,0,4.26,3.52,62.44,62.44,0,0,0,10,5.09,45.91,45.91,0,0,1,9.28,5,20.07,20.07,0,0,1,5.77,5.69c1.35,2.09,2,5,2,8.68V263q0,9.44-5.31,14.07t-16.85,4.65q-12.28,0-17.75-5t-5.47-14.6v-4.34h12.28v4.79c0,2.89.78,5,2.32,6.44s4.22,2.1,8,2.1c3.49,0,6-.65,7.63-1.95s2.4-3.3,2.4-6v-2.85a8.22,8.22,0,0,0-1.12-4.19q-1.12-1.95-5.17-4.2c-.2-.09-1.12-.57-2.77-1.42s-3.5-1.84-5.54-3S225,245.21,223,244s-3.62-2.2-4.72-3a15.52,15.52,0,0,1-5-5.84,16.46,16.46,0,0,1-1.42-6.89v-3.59a14.78,14.78,0,0,1,5.62-12.06q5.61-4.56,16.1-4.57,11.22,0,16.7,5.25t5.46,14.22v3.6Z" transform="translate(-77.51 -133.87)" />
        <path class="cls-1" d="M296.58,254.19h12.28v5.09q0,11.24-5.17,16.85t-16.85,5.62q-11.38,0-16.84-5.47t-5.47-17V230.53q0-11.39,5.47-16.92t17-5.55q11.53,0,16.7,5.55t5.17,16.92v4.79H296.73v-4.79q0-10.78-9.74-10.78t-9.88,10.78v28.75q0,10.79,9.73,10.79t9.74-10.79Z" transform="translate(-77.51 -133.87)" />
        <path class="cls-1" d="M348.34,280.85V229.63c0-3.49-.8-6.07-2.4-7.71a8.93,8.93,0,0,0-6.74-2.47,9.62,9.62,0,0,0-7.78,3.37q-2.85,3.36-3.15,11.45v46.58H315.39V180.21h12.88V218h.6a15.27,15.27,0,0,1,6-7.49,17.66,17.66,0,0,1,9.44-2.4,17.47,17.47,0,0,1,8,1.65,14.67,14.67,0,0,1,5.24,4.42,18.16,18.16,0,0,1,2.92,6.29,29.23,29.23,0,0,1,.9,7.26v53.17Z" transform="translate(-77.51 -133.87)" />
        <path class="cls-1" d="M415.7,259.28q0,11.69-5.47,17.08t-17,5.39q-11.53,0-17-5.39t-5.47-17.08V230.53q0-11.68,5.47-17.07t17-5.4q11.52,0,17,5.4t5.47,17.07Zm-12.58-28.75q0-10.78-9.88-10.78t-9.89,10.78v28.75q0,10.79,9.89,10.79t9.88-10.79Z" transform="translate(-77.51 -133.87)" />
        <path class="cls-1" d="M467.88,259.28q0,11.69-5.47,17.08t-17,5.39q-11.54,0-17-5.39T423,259.28V230.53q0-11.68,5.47-17.07t17-5.4q11.52,0,17,5.4t5.47,17.07ZM455.3,230.53q0-10.78-9.88-10.78t-9.89,10.78v28.75q0,10.79,9.89,10.79t9.88-10.79Z" transform="translate(-77.51 -133.87)" />
        <path class="cls-1" d="M473.7,280.85V180.21h12.88V280.85Z" transform="translate(-77.51 -133.87)" />
        <path class="cls-2" d="M300.3,383.18a8.47,8.47,0,0,0,5.34-2,10,10,0,0,0,3.42-4.83q5.34-20.34,11-41.13t11-41.13h16.48l-22.13,82.56a28.45,28.45,0,0,1-4.3,8.91,37.22,37.22,0,0,1-6.83,7.27,31,31,0,0,1-8.54,4.9,25.92,25.92,0,0,1-9.28,1.78H289c-5.34,0-9.68-1.6-13-4.82a16.51,16.51,0,0,1-5-12.4,21.44,21.44,0,0,1,.9-5.94q5.34-20.34,11-41.13t11-41.13h16.48l-22.12,82.56a5.5,5.5,0,0,0,.52,4.68,4.59,4.59,0,0,0,4.08,1.85Z" transform="translate(-77.51 -133.87)" />
        <path class="cls-2" d="M341.43,399.51H325l28.21-105.42h30.29q8.16,0,13,4.82a16.78,16.78,0,0,1,4.83,12.4,29.53,29.53,0,0,1-.15,3,16.43,16.43,0,0,1-.59,3c-.7,2.48-1.37,4.95-2,7.43s-1.31,4.95-2,7.42a28.81,28.81,0,0,1-4.31,8.76,35.88,35.88,0,0,1-6.9,7.28,34.72,34.72,0,0,1-8.47,5,23.85,23.85,0,0,1-9.13,1.86h-14.4Zm16.18-60.88h14a9.62,9.62,0,0,0,5.27-2.08,8.48,8.48,0,0,0,3.34-4.75l4-14.85a5.31,5.31,0,0,0-.59-4.67,4.78,4.78,0,0,0-4.16-1.86H365.19Z" transform="translate(-77.51 -133.87)" />
        <path class="cls-2" d="M400.82,399.51H384.34l28.22-105.42h30.29q8.16,0,13,4.82a16.78,16.78,0,0,1,4.83,12.4,29.53,29.53,0,0,1-.15,3,15.65,15.65,0,0,1-.6,3c-.69,2.48-1.36,4.95-2,7.43s-1.31,4.95-2,7.42a28.78,28.78,0,0,1-4.3,8.76,35.93,35.93,0,0,1-6.91,7.28,34.48,34.48,0,0,1-8.46,5,23.88,23.88,0,0,1-9.13,1.86H412.7ZM417,338.63h14a9.62,9.62,0,0,0,5.27-2.08,8.53,8.53,0,0,0,3.34-4.75l4-14.85a5.34,5.34,0,0,0-.59-4.67,4.79,4.79,0,0,0-4.16-1.86H424.58Z" transform="translate(-77.51 -133.87)" />
        <path class="cls-2" d="M443.74,399.51,472,294.09h16.48l-23.9,89.09h37l-4.16,16.33Z" transform="translate(-77.51 -133.87)" />
        <path class="cls-3" d="M524.07,399.51H507.59L535.8,294.09h16.48Z" transform="translate(-77.51 -133.87)" />
        <path class="cls-2" d="M559.56,294.09h53.6l-4.45,16.33H571.58q-1.92,7.27-3.78,14.11T564,338.63h29.85L589.4,355H559.7c-1.38,4.85-2.65,9.55-3.78,14.1s-2.4,9.26-3.79,14.11h37L585,399.51H531.34Z" transform="translate(-77.51 -133.87)" />
        <path class="cls-2" d="M613.61,381.4a4.28,4.28,0,0,0,3.86,1.78h7.87a9.67,9.67,0,0,0,5.42-2A8.5,8.5,0,0,0,634,376.5c.3-1.29.64-2.55,1-3.79s.74-2.5,1-3.79a2.79,2.79,0,0,0,.15-.81,4.18,4.18,0,0,1,.15-1c.19-1,.41-2.05.66-3.19a15.53,15.53,0,0,0,.37-3.34,7.34,7.34,0,0,0-.81-3.56,4.07,4.07,0,0,0-3.34-1.79h-7.43a15.49,15.49,0,0,1-5.57-1.18,20.39,20.39,0,0,1-5.71-3.42,19.57,19.57,0,0,1-4.53-5.49,15,15,0,0,1-1.86-7.58,23.89,23.89,0,0,1,.15-2.67,16.73,16.73,0,0,1,.59-2.82q1-3.86,2-7.65t2-7.65a29.69,29.69,0,0,1,4.23-8.9,33.89,33.89,0,0,1,6.76-7.21,32.86,32.86,0,0,1,8.47-4.82,25.61,25.61,0,0,1,9.35-1.78h7.57q8,.3,12.92,5.12a16.46,16.46,0,0,1,4.9,12.25,17,17,0,0,1-.22,2.82c-.15.89-.32,1.84-.52,2.82l-4.16,15.59H645.68L650,317a4.64,4.64,0,0,0-.75-4.45,5.88,5.88,0,0,0-4-2.08h-7.57a8.27,8.27,0,0,0-5.34,1.93,8.91,8.91,0,0,0-3.12,4.9l-2.08,7.43a10.79,10.79,0,0,0-.45,2.22c-.2,1.09-.39,2.21-.59,3.34a19.4,19.4,0,0,0-.3,3.35,7.23,7.23,0,0,0,.82,3.56c.54,1,1.66,1.48,3.34,1.48h7.42A20.38,20.38,0,0,1,643,339.9a19.8,19.8,0,0,1,5.79,3.26,19,19,0,0,1,4.53,5.42,14.87,14.87,0,0,1,1.85,7.43,18.92,18.92,0,0,1-.89,5.79c-.59,2.37-1.24,4.85-1.93,7.42s-1.33,5-1.93,7.43a28.43,28.43,0,0,1-4.23,8.83,33.45,33.45,0,0,1-6.91,7.2,35.73,35.73,0,0,1-8.61,5,24.41,24.41,0,0,1-9.21,1.85h-7.86q-8,0-12.77-4.75a16.46,16.46,0,0,1-4.76-12.17,22.42,22.42,0,0,1,.9-6.24q.88-3.57,2-7.72c.74-2.77,1.41-5.35,2-7.72h16.49l-4.31,15.89A5.45,5.45,0,0,0,613.61,381.4Z" transform="translate(-77.51 -133.87)" />
        <polygon class="cls-3" points="441.56 280.74 129.48 280.74 133.24 268.55 445.32 268.55 441.56 280.74" /><path class="cls-2" d="M228.76,380.66a4.32,4.32,0,0,0,3.89,1.79h7.93a9.57,9.57,0,0,0,5.46-2,8.46,8.46,0,0,0,3.22-4.71c.3-1.29.65-2.57,1.05-3.82s.74-2.51,1-3.81a2.61,2.61,0,0,0,.15-.83,4.26,4.26,0,0,1,.15-1c.2-1,.43-2.07.68-3.21a16.47,16.47,0,0,0,.37-3.37,7.44,7.44,0,0,0-.82-3.59c-.55-1-1.67-1.6-3.37-1.8H241a15.49,15.49,0,0,1-5.61-1.2,20.33,20.33,0,0,1-5.76-3.44,19.88,19.88,0,0,1-4.57-5.53,15.18,15.18,0,0,1-1.87-7.64,24.39,24.39,0,0,1,.15-2.69A16.06,16.06,0,0,1,224,331c.7-2.6,1.37-5.16,2-7.71s1.32-5.11,2-7.71a29.79,29.79,0,0,1,4.26-9,33.65,33.65,0,0,1,6.81-7.26,33.25,33.25,0,0,1,8.53-4.87,26.08,26.08,0,0,1,9.43-1.79h7.63q8.08.3,13,5.16a16.62,16.62,0,0,1,4.94,12.35,17.19,17.19,0,0,1-.23,2.84c-.15.9-.32,1.85-.52,2.84l-4.19,15.72H261.08l4.34-15.87a4.66,4.66,0,0,0-.75-4.49,6,6,0,0,0-4-2.09H253a8.36,8.36,0,0,0-5.39,1.94,9.1,9.1,0,0,0-3.14,4.94l-2.09,7.49a9.69,9.69,0,0,0-.45,2.24c-.2,1.1-.4,2.22-.6,3.37a19.6,19.6,0,0,0-.3,3.36,7.37,7.37,0,0,0,.82,3.6c.55,1,1.67,1.49,3.37,1.49h7.48a20.71,20.71,0,0,1,5.69,1.27,19.9,19.9,0,0,1,5.83,3.3,18.74,18.74,0,0,1,4.57,5.46,14.94,14.94,0,0,1,1.87,7.48,19.25,19.25,0,0,1-.9,5.84q-.9,3.58-1.95,7.48c-.69,2.59-1.34,5.09-1.94,7.48a28.67,28.67,0,0,1-4.27,8.9,33.92,33.92,0,0,1-7,7.26,35.8,35.8,0,0,1-8.68,5,24.64,24.64,0,0,1-9.28,1.87h-7.93q-8.08,0-12.87-4.78a16.61,16.61,0,0,1-4.79-12.27,22.71,22.71,0,0,1,.9-6.29c.6-2.39,1.27-5,2-7.78s1.42-5.39,2-7.78h16.61l-4.34,16A5.54,5.54,0,0,0,228.76,380.66Z" transform="translate(-77.51 -133.87)" />
        <rect class="cls-2" x="97.31" y="170.1" width="70.86" height="8.27" />
        <rect class="cls-2" x="114.52" y="183.8" width="38.13" height="9.31" />
        <rect class="cls-2" x="109.59" y="226.15" width="39.97" height="9.29" />
        <rect class="cls-2" x="116.6" y="248.06" width="31.96" height="6.79" />
        <rect class="cls-2" x="119.29" y="202.84" width="31.96" height="9.09" />
    </g>

    <g id="mobil">
        <path class="cls-1" d="M307.14,254.36v-2.69a5,5,0,0,0-1.44-3.85q-1.44-1.33-4.71-1.34-6.35,0-6.34,4.51v1.44a4.14,4.14,0,0,0,.62,2.36,10,10,0,0,0,2.74,2.26,40.63,40.63,0,0,0,6.44,3.26,30.12,30.12,0,0,1,6,3.17,13,13,0,0,1,3.7,3.66,10.27,10.27,0,0,1,1.29,5.57v2.11q0,6.06-3.41,9t-10.81,3q-7.87,0-11.38-3.22t-3.51-9.37v-2.78h7.88v3.07a5.25,5.25,0,0,0,1.49,4.13q1.48,1.35,5.14,1.35a7.78,7.78,0,0,0,4.9-1.25,4.66,4.66,0,0,0,1.54-3.84v-1.83a5.32,5.32,0,0,0-.72-2.69,8.79,8.79,0,0,0-3.32-2.69l-1.78-.91c-1.05-.54-2.24-1.19-3.55-1.92s-2.63-1.49-3.94-2.26-2.32-1.41-3-1.92a9.93,9.93,0,0,1-3.22-3.75,10.56,10.56,0,0,1-.91-4.42v-2.31a9.47,9.47,0,0,1,3.6-7.73q3.6-2.93,10.33-2.93,7.21,0,10.71,3.36a12.05,12.05,0,0,1,3.51,9.13v2.31Z" transform="translate(-77.51 -133.87)" />
        <path class="cls-1" d="M341.15,269.15H349v3.27q0,7.2-3.31,10.81t-10.81,3.6q-7.31,0-10.81-3.5t-3.51-10.91V254q0-7.31,3.51-10.86t10.9-3.55q7.41,0,10.72,3.55T349,254v3.08h-7.78V254q0-6.91-6.25-6.92T328.66,254v18.45q0,6.91,6.25,6.92t6.24-6.92Z" transform="translate(-77.51 -133.87)" />
        <path class="cls-1" d="M374.36,286.26V253.4q0-3.37-1.53-5a5.75,5.75,0,0,0-4.33-1.59,6.18,6.18,0,0,0-5,2.16c-1.22,1.44-1.9,3.89-2,7.35v29.89h-8.27V221.69h8.27V245.9h.38a9.74,9.74,0,0,1,3.85-4.8,11.26,11.26,0,0,1,6-1.54,11.15,11.15,0,0,1,5.14,1.06,9.29,9.29,0,0,1,3.36,2.83,11.71,11.71,0,0,1,1.88,4,18.94,18.94,0,0,1,.57,4.66v34.11Z" transform="translate(-77.51 -133.87)" />
        <path class="cls-1" d="M417.58,272.42q0,7.5-3.51,10.95t-10.9,3.46q-7.41,0-10.91-3.46t-3.51-10.95V254c0-5,1.17-8.65,3.51-10.95s6-3.46,10.91-3.46,8.56,1.15,10.9,3.46,3.51,6,3.51,10.95ZM409.51,254q0-6.91-6.34-6.92T396.83,254v18.45q0,6.91,6.34,6.92t6.34-6.92Z" transform="translate(-77.51 -133.87)" />
        <path class="cls-1" d="M451.06,272.42q0,7.5-3.51,10.95t-10.91,3.46q-7.39,0-10.9-3.46t-3.51-10.95V254c0-5,1.17-8.65,3.51-10.95s6-3.46,10.9-3.46,8.57,1.15,10.91,3.46,3.51,6,3.51,10.95ZM443,254q0-6.91-6.35-6.92T430.3,254v18.45q0,6.91,6.34,6.92t6.35-6.92Z" transform="translate(-77.51 -133.87)" />
        <path class="cls-1" d="M454.79,286.26V221.69h8.26v64.57Z" transform="translate(-77.51 -133.87)" />
        <path class="cls-2" d="M343.54,351.91a5.41,5.41,0,0,0,3.43-1.29,6.32,6.32,0,0,0,2.19-3.09q3.43-13,7-26.39t7.05-26.39h10.58l-14.2,53a18.17,18.17,0,0,1-2.76,5.71,23.47,23.47,0,0,1-4.38,4.67,20.19,20.19,0,0,1-5.48,3.15,16.7,16.7,0,0,1-6,1.14H336.3a11.46,11.46,0,0,1-8.34-3.1,10.57,10.57,0,0,1-3.19-8,13.87,13.87,0,0,1,.57-3.81q3.44-13,7.05-26.39t7.05-26.39H350l-14.2,53a3.52,3.52,0,0,0,.34,3,2.94,2.94,0,0,0,2.62,1.19Z" transform="translate(-77.51 -133.87)" />
        <path class="cls-2" d="M369.93,362.39H359.35l18.11-67.64h19.43a11.27,11.27,0,0,1,8.34,3.1,10.76,10.76,0,0,1,3.09,7.95c0,.64,0,1.27-.09,1.91a10.66,10.66,0,0,1-.38,1.9q-.68,2.38-1.29,4.76t-1.29,4.77a18.48,18.48,0,0,1-2.76,5.62,23.12,23.12,0,0,1-4.43,4.67,22.57,22.57,0,0,1-5.43,3.19,15.42,15.42,0,0,1-5.86,1.19h-9.24Zm10.38-39.06h9a6.24,6.24,0,0,0,3.38-1.33,5.54,5.54,0,0,0,2.14-3.05l2.58-9.53a3.42,3.42,0,0,0-.39-3,3.07,3.07,0,0,0-2.66-1.19h-9.15Z" transform="translate(-77.51 -133.87)" />
        <path class="cls-2" d="M408,362.39H397.46l18.1-67.64H435a11.23,11.23,0,0,1,8.33,3.1,10.73,10.73,0,0,1,3.1,7.95,17.46,17.46,0,0,1-.1,1.91,9.84,9.84,0,0,1-.38,1.9q-.66,2.38-1.28,4.76t-1.29,4.77a18.48,18.48,0,0,1-2.76,5.62,22.77,22.77,0,0,1-9.86,7.86,15.42,15.42,0,0,1-5.86,1.19h-9.24Zm10.38-39.06h9a6.24,6.24,0,0,0,3.38-1.33A5.54,5.54,0,0,0,432.9,319l2.57-9.53a3.42,3.42,0,0,0-.38-3,3.07,3.07,0,0,0-2.67-1.19h-9.14Z" transform="translate(-77.51 -133.87)" />
        <path class="cls-2" d="M435.57,362.39l18.1-67.64h10.57l-15.33,57.16h23.72L470,362.39Z" transform="translate(-77.51 -133.87)" />
        <path class="cls-3" d="M487.11,362.39H476.53l18.1-67.64h10.58Z" transform="translate(-77.51 -133.87)" />
        <path class="cls-2" d="M509.88,294.75h34.39l-2.86,10.48H517.59q-1.23,4.66-2.43,9t-2.43,9.05h19.15L529,333.81H510q-1.34,4.67-2.43,9.05t-2.43,9.05h23.72l-2.66,10.48h-34.4Z" transform="translate(-77.51 -133.87)" />
        <path class="cls-2" d="M544.55,350.77a2.77,2.77,0,0,0,2.48,1.14h5.05a6,6,0,0,0,3.47-1.29,5.35,5.35,0,0,0,2.05-3c.19-.82.42-1.63.67-2.43s.48-1.6.67-2.43a1.72,1.72,0,0,0,.09-.52,2.38,2.38,0,0,1,.1-.62c.12-.63.27-1.32.43-2.05a10.63,10.63,0,0,0,.24-2.14,4.7,4.7,0,0,0-.53-2.29,2.61,2.61,0,0,0-2.14-1.14h-4.77a9.85,9.85,0,0,1-3.57-.76,13.47,13.47,0,0,1-3.67-2.19,12.75,12.75,0,0,1-2.9-3.53,9.59,9.59,0,0,1-1.19-4.86,16.32,16.32,0,0,1,.09-1.71,9.93,9.93,0,0,1,.38-1.81q.68-2.47,1.29-4.91c.41-1.62.84-3.25,1.29-4.91a18.82,18.82,0,0,1,2.71-5.71,21.42,21.42,0,0,1,4.33-4.62,21.1,21.1,0,0,1,5.44-3.1,16.47,16.47,0,0,1,6-1.14h4.86A11.93,11.93,0,0,1,575.7,298a10.54,10.54,0,0,1,3.15,7.86,11.75,11.75,0,0,1-.14,1.81c-.1.57-.21,1.17-.34,1.81l-2.67,10H565.13l2.76-10.1a3,3,0,0,0-.47-2.86,3.83,3.83,0,0,0-2.58-1.33H560a5.24,5.24,0,0,0-3.42,1.24,5.65,5.65,0,0,0-2,3.14l-1.34,4.76a6.82,6.82,0,0,0-.28,1.43c-.13.7-.26,1.42-.39,2.15a13.18,13.18,0,0,0-.19,2.14,4.7,4.7,0,0,0,.53,2.29,2.23,2.23,0,0,0,2.14.95h4.77a13.07,13.07,0,0,1,3.62.81,12.58,12.58,0,0,1,3.71,2.1,12.25,12.25,0,0,1,2.91,3.47,9.54,9.54,0,0,1,1.19,4.77,12.23,12.23,0,0,1-.57,3.71c-.39,1.53-.8,3.11-1.24,4.76s-.86,3.24-1.24,4.77a18.31,18.31,0,0,1-2.72,5.67A22,22,0,0,1,561,358a22.78,22.78,0,0,1-5.52,3.19,15.78,15.78,0,0,1-5.91,1.19h-5.05a11.07,11.07,0,0,1-8.19-3.05,10.53,10.53,0,0,1-3.05-7.81,14.48,14.48,0,0,1,.57-4q.57-2.29,1.29-5c.47-1.77.9-3.43,1.28-4.95H547l-2.76,10.19A3.53,3.53,0,0,0,544.55,350.77Z" transform="translate(-77.51 -133.87)" />
        <path class="cls-2" d="M297.64,350.29a2.78,2.78,0,0,0,2.5,1.15h5.09a6.16,6.16,0,0,0,3.5-1.29,5.5,5.5,0,0,0,2.07-3c.19-.83.41-1.64.67-2.45s.48-1.61.67-2.44a1.88,1.88,0,0,0,.1-.53,2.94,2.94,0,0,1,.09-.63c.13-.64.27-1.32.43-2.06a10.21,10.21,0,0,0,.24-2.16,4.63,4.63,0,0,0-.53-2.3,2.62,2.62,0,0,0-2.16-1.16h-4.8a10.08,10.08,0,0,1-3.6-.76,13.5,13.5,0,0,1-3.69-2.21,12.94,12.94,0,0,1-2.93-3.55,9.75,9.75,0,0,1-1.2-4.9,14.34,14.34,0,0,1,.1-1.73,10.21,10.21,0,0,1,.38-1.82c.45-1.67.88-3.31,1.3-4.95s.84-3.28,1.29-4.94a19.06,19.06,0,0,1,2.74-5.76,21.55,21.55,0,0,1,4.37-4.66,21,21,0,0,1,5.47-3.12,16.57,16.57,0,0,1,6.05-1.15h4.89a12.1,12.1,0,0,1,8.36,3.31,10.65,10.65,0,0,1,3.16,7.92,10.78,10.78,0,0,1-.14,1.83c-.1.57-.21,1.18-.34,1.82L329,318.8H318.38l2.78-10.18a3,3,0,0,0-.48-2.88,3.84,3.84,0,0,0-2.59-1.34h-4.9a5.33,5.33,0,0,0-3.45,1.25,5.76,5.76,0,0,0-2,3.17l-1.34,4.8a6.62,6.62,0,0,0-.29,1.44c-.13.7-.26,1.42-.38,2.16a12.31,12.31,0,0,0-.2,2.16,4.74,4.74,0,0,0,.53,2.3,2.24,2.24,0,0,0,2.16,1H313a13.52,13.52,0,0,1,3.65.82,12.81,12.81,0,0,1,3.75,2.11,12.25,12.25,0,0,1,2.92,3.5,9.55,9.55,0,0,1,1.2,4.8,12.54,12.54,0,0,1-.57,3.75c-.39,1.53-.8,3.13-1.25,4.8s-.86,3.26-1.25,4.8a18.44,18.44,0,0,1-2.73,5.71,22.17,22.17,0,0,1-4.47,4.66,23.16,23.16,0,0,1-5.57,3.21,15.8,15.8,0,0,1-5.95,1.2h-5.09a11.13,11.13,0,0,1-8.25-3.07,10.65,10.65,0,0,1-3.08-7.87,14.71,14.71,0,0,1,.58-4c.38-1.54.81-3.2,1.3-5s.91-3.45,1.29-5h10.66l-2.79,10.28A3.55,3.55,0,0,0,297.64,350.29Z" transform="translate(-77.51 -133.87)" />
        <rect class="cls-2" x="185.53" y="167.22" width="45.46" height="5.31" />
        <rect class="cls-2" x="196.57" y="176.01" width="24.47" height="5.97" />
        <rect class="cls-2" x="193.41" y="203.18" width="25.65" height="5.96" />
        <rect class="cls-2" x="197.9" y="217.24" width="20.5" height="4.36" />
        <rect class="cls-2" x="199.62" y="188.23" width="20.5" height="5.83" />
    </g>

    <g id="icono">
        <path class="cls-2" d="M404.38,320.56a2.09,2.09,0,0,0,1.88.87h3.82a4.68,4.68,0,0,0,2.64-1,4.12,4.12,0,0,0,1.55-2.27c.15-.63.31-1.24.51-1.84s.36-1.22.5-1.84a1.25,1.25,0,0,0,.07-.4,2,2,0,0,1,.08-.47c.09-.48.2-1,.32-1.55a7.59,7.59,0,0,0,.18-1.62,3.5,3.5,0,0,0-.4-1.74,1.93,1.93,0,0,0-1.62-.86H410.3a7.65,7.65,0,0,1-2.71-.58,10.15,10.15,0,0,1-2.77-1.66,9.67,9.67,0,0,1-2.21-2.67,7.35,7.35,0,0,1-.9-3.68c0-.44,0-.87.07-1.3a8.42,8.42,0,0,1,.29-1.37c.34-1.25.66-2.49,1-3.72s.63-2.47,1-3.72a14.24,14.24,0,0,1,2.06-4.33,16.32,16.32,0,0,1,3.28-3.5,15.87,15.87,0,0,1,4.12-2.35,12.61,12.61,0,0,1,4.54-.86h3.69a9,9,0,0,1,6.28,2.49,8,8,0,0,1,2.38,5.95,8.54,8.54,0,0,1-.11,1.37c-.07.44-.16.9-.25,1.38l-2,7.58h-8l2.1-7.66a2.25,2.25,0,0,0-.36-2.16,2.83,2.83,0,0,0-1.95-1h-3.68a4,4,0,0,0-2.6.94,4.34,4.34,0,0,0-1.52,2.38L411,293a5.24,5.24,0,0,0-.22,1.08c-.09.53-.19,1.07-.28,1.62a9.24,9.24,0,0,0-.15,1.63,3.48,3.48,0,0,0,.4,1.73,1.67,1.67,0,0,0,1.62.72h3.61a10.52,10.52,0,0,1,5.56,2.2,9.07,9.07,0,0,1,2.2,2.64,7.19,7.19,0,0,1,.9,3.61,9.21,9.21,0,0,1-.43,2.81c-.29,1.16-.6,2.36-.94,3.61s-.65,2.46-.94,3.61a14.06,14.06,0,0,1-2,4.3,16.63,16.63,0,0,1-3.36,3.5,17.76,17.76,0,0,1-4.19,2.42,11.89,11.89,0,0,1-4.47.9h-3.83a8.39,8.39,0,0,1-6.21-2.31,8,8,0,0,1-2.31-5.92,10.94,10.94,0,0,1,.44-3c.29-1.16.61-2.41,1-3.76s.69-2.6,1-3.75h8l-2.09,7.72A2.66,2.66,0,0,0,404.38,320.56Z" transform="translate(-77.51 -133.87)" />
        <rect class="cls-2" x="300.86" y="149.7" width="34.18" height="3.99" />
        <rect class="cls-2" x="309.15" y="156.31" width="18.39" height="4.49" />
        <rect class="cls-2" x="306.78" y="176.74" width="19.28" height="4.48" />
        <rect class="cls-2" x="310.16" y="187.31" width="15.42" height="3.28" />
        <rect class="cls-2" x="311.45" y="165.49" width="15.42" height="4.38" />
    </g>
    
</svg>
